HIERARCHY
ROOT Hips
{
    OFFSET 0.000000 0.000000 0.000000
    CHANNELS 6 Xposition Yposition Zposition Zrotation Xrotation Yrotation
    JOINT Spine
    {
        OFFSET -0.000000 14.517291 0.000000
        CHANNELS 3 Zrotation Xrotation Yrotation
        JOINT Spine1
        {
            OFFSET -0.000000 37.558300 0.000000
            CHANNELS 3 Zrotation Xrotation Yrotation
            JOINT Neck
            {
                OFFSET -0.000000 37.404057 3.400369
                CHANNELS 3 Zrotation Xrotation Yrotation
                JOINT Head
                {
                    OFFSET -0.000000 24.785618 -3.540803
                    CHANNELS 3 Zrotation Xrotation Yrotation
                    End Site
                    {
                        OFFSET -0.000000 35.408028 0.000000
                    }
                }
            }
            JOINT LeftShoulder
            {
                OFFSET 6.992933 33.973492 -0.192664
                CHANNELS 3 Zrotation Xrotation Yrotation
                JOINT LeftArm
                {
                    OFFSET 21.527611 0.000000 0.000000
                    CHANNELS 3 Zrotation Xrotation Yrotation
                    JOINT LeftForeArm
                    {
                        OFFSET 56.353916 0.000000 0.000000
                        CHANNELS 3 Zrotation Xrotation Yrotation
                        JOINT LeftHand
                        {
                            OFFSET 47.774071 0.000000 0.000000
                            CHANNELS 3 Zrotation Xrotation Yrotation
                            End Site
                            {
                                OFFSET 26.556021 0.000000 0.000000
                            }
                        }
                    }
                }
            }
            JOINT RightShoulder
            {
                OFFSET -7.065357 33.973492 -0.192664
                CHANNELS 3 Zrotation Xrotation Yrotation
                JOINT RightArm
                {
                    OFFSET -21.527611 0.000000 0.000000
                    CHANNELS 3 Zrotation Xrotation Yrotation
                    JOINT RightForeArm
                    {
                        OFFSET -56.353916 0.000000 0.000000
                        CHANNELS 3 Zrotation Xrotation Yrotation
                        JOINT RightHand
                        {
                            OFFSET -47.774071 0.000000 0.000000
                            CHANNELS 3 Zrotation Xrotation Yrotation
                            End Site
                            {
                                OFFSET -26.556021 0.000000 0.000000
                            }
                        }
                    }
                }
            }
        }
    }
    JOINT LeftUpLeg
    {
        OFFSET 17.704014 0.000000 0.000000
        CHANNELS 3 Zrotation Xrotation Yrotation
        JOINT LeftLeg
        {
            OFFSET -0.000000 -81.181816 0.000000
            CHANNELS 3 Zrotation Xrotation Yrotation
            JOINT LeftFoot
            {
                OFFSET -0.000000 -62.821102 0.000000
                CHANNELS 3 Zrotation Xrotation Yrotation
                JOINT LeftToeBase
                {
                    OFFSET -0.000000 -11.507608 26.556021
                    CHANNELS 3 Zrotation Xrotation Yrotation
                    End Site
                    {
                        OFFSET -0.000000 0.000000 7.081605
                    }
                }
            }
        }
    }
    JOINT RightUpLeg
    {
        OFFSET -17.704014 0.000000 0.000000
        CHANNELS 3 Zrotation Xrotation Yrotation
        JOINT RightLeg
        {
            OFFSET -0.000000 -81.181816 0.000000
            CHANNELS 3 Zrotation Xrotation Yrotation
            JOINT RightFoot
            {
                OFFSET -0.000000 -62.821102 0.000000
                CHANNELS 3 Zrotation Xrotation Yrotation
                JOINT RightToeBase
                {
                    OFFSET -0.000000 -11.507608 26.556021
                    CHANNELS 3 Zrotation Xrotation Yrotation
                    End Site
                    {
                        OFFSET -0.000000 0.000000 7.081605
                    }
                }
            }
        }
    }
}
MOTION
Frames:    14
Frame Time:    0.008333
21.508194    146.015396    47.524582    2.724500    2.844108    -56.427883    0.881832    -2.182243    0.400492    1.582086    -1.620364    0.147134    22.005402    3.390868    18.681229    -14.548731    9.212110    15.970550    13.339288    2.611158    -15.194867    -6.759487    -5.096565    -21.796968    -3.600537    -2.790993    -85.907257    -3.505756    -5.326941    -26.106779    0.783926    4.147298    -9.868922    39.571602    -11.403264    38.265835    16.591639    -44.639481    105.772644    45.826363    -42.596935    54.197975    36.746502    -23.654299    26.104969    -28.974333    41.767529    4.064703    -1.307357    -13.051908    43.627525    0.000000    0.000000    0.000000    -28.762182    -7.682189    -19.706701    4.155386    33.786713    -6.884346    19.825302    -13.755755    7.236792    0.000000    0.000000    0.000000    
21.542332    146.021179    47.513649    2.723324    2.846680    -56.422146    0.907562    -2.157632    0.431221    1.539719    -1.667988    0.157338    22.014755    3.371981    18.677433    -14.543970    9.238394    15.965273    13.347263    2.611617    -15.202271    -6.741871    -5.144059    -22.241743    -3.565772    -2.926477    -85.807755    -3.671128    -5.396414    -25.791515    0.611555    4.007742    -9.669776    39.199062    -11.689540    38.745148    16.494816    -45.022419    105.378212    46.242935    -42.437218    54.541416    36.747074    -23.661531    26.095177    -28.990149    41.740585    4.080553    -1.296779    -13.022773    43.626488    0.000000    0.000000    0.000000    -28.763533    -7.693790    -19.703083    4.160296    33.783802    -6.881629    19.818300    -13.734584    7.209728    0.000000    0.000000    0.000000    
21.573860    146.029358    47.500618    2.718163    2.846782    -56.419056    0.928643    -2.124287    0.463321    1.509152    -1.724447    0.168080    21.998260    3.362524    18.667526    -14.509349    9.252825    15.958902    13.336358    2.605619    -15.221762    -6.716487    -5.136963    -21.839302    -3.678760    -2.704770    -85.939705    -3.525157    -5.313188    -26.046139    0.434108    3.866721    -9.467771    39.132698    -12.567607    39.242775    16.662437    -44.532269    104.935944    46.226887    -41.964855    54.556473    36.743256    -23.664116    26.093599    -28.981438    41.726269    4.068901    -1.310957    -13.017607    43.625675    0.000000    0.000000    0.000000    -28.765759    -7.697147    -19.695002    4.180896    33.774452    -6.909948    19.812178    -13.710346    7.216163    0.000000    0.000000    0.000000    
21.607872    146.034882    47.485641    2.719074    2.845227    -56.412586    0.950072    -2.091384    0.503175    1.467185    -1.781682    0.181820    21.978029    3.344940    18.654091    -14.459348    9.256040    15.947042    13.337881    2.611584    -15.246046    -6.691357    -5.167042    -22.273643    -3.622652    -2.873044    -85.843407    -3.700543    -5.393064    -25.740261    0.265721    3.721709    -9.295547    38.595634    -12.546288    39.712090    16.343922    -45.355377    104.493263    46.724995    -41.950485    54.984619    36.732025    -23.675016    26.097158    -28.961590    41.708138    4.060054    -1.311384    -12.991891    43.616821    0.000000    0.000000    0.000000    -28.773636    -7.739679    -19.621435    4.215457    33.830162    -7.008564    19.832769    -13.677072    7.213000    0.000000    0.000000    0.000000    
21.640045    146.040436    47.469788    2.718316    2.839978    -56.409451    0.971676    -2.054008    0.544658    1.420427    -1.838786    0.195616    22.001814    3.336119    18.641991    -14.478525    9.267822    15.930017    13.336204    2.601665    -15.270882    -6.667541    -5.197605    -21.878874    -3.747377    -2.622587    -85.948128    -3.575593    -5.282928    -26.076794    0.099308    3.547728    -9.117421    38.312866    -12.945077    40.201397    16.241982    -45.539173    104.042397    46.941116    -41.702164    55.223057    36.724106    -23.684402    26.083027    -28.969173    41.694496    4.071715    -1.302736    -12.970404    43.623497    0.000000    0.000000    0.000000    -28.782719    -7.752195    -19.627895    4.217309    33.837185    -7.029728    19.819515    -13.650905    7.232029    0.000000    0.000000    0.000000    
21.673275    146.047562    47.451996    2.717582    2.838843    -56.411625    0.998749    -2.020545    0.588705    1.367513    -1.891149    0.209975    22.011829    3.313600    18.635601    -14.459754    9.287439    15.921124    13.348150    2.602576    -15.290591    -6.646882    -5.216909    -22.306440    -3.676379    -2.804146    -85.865593    -3.740605    -5.364850    -25.789679    -0.058733    3.371518    -8.913589    37.995380    -13.345711    40.645752    16.130421    -45.760391    103.599831    47.233383    -41.466084    55.425377    36.717083    -23.688002    26.074696    -28.958853    41.670734    4.060187    -1.307928    -12.960503    43.628654    0.000000    0.000000    0.000000    -28.787560    -7.767978    -19.611277    4.235293    33.838211    -7.029553    19.823900    -13.640714    7.197438    0.000000    0.000000    0.000000    
21.700048    146.053177    47.432934    2.712619    2.838843    -56.407322    1.029172    -1.986550    0.630909    1.315019    -1.938717    0.223445    22.009605    3.289672    18.620855    -14.430850    9.297168    15.904007    13.353594    2.592767    -15.306440    -6.620216    -5.215976    -21.916393    -3.767239    -2.603154    -85.969315    -3.606184    -5.273665    -26.162731    -0.222581    3.195099    -8.725466    37.676472    -13.721598    41.099957    16.075451    -46.000141    103.221123    47.533058    -41.304768    55.667133    36.713348    -23.692764    26.057781    -28.961473    41.644772    4.068233    -1.292982    -12.935079    43.632946    0.000000    0.000000    0.000000    -28.785482    -7.774839    -19.603525    4.243674    33.835442    -7.044110    19.805414    -13.626996    7.192255    0.000000    0.000000    0.000000    
21.733597    146.060120    47.413654    2.712094    2.839944    -56.404854    1.050762    -1.937493    0.684459    1.286468    -2.018104    0.241907    21.996262    3.283364    18.607956    -14.411772    9.285846    15.890490    13.341851    2.591784    -15.343766    -6.598285    -5.229084    -22.348843    -3.685896    -2.786282    -85.881058    -3.749171    -5.352501    -25.865952    -0.428100    2.995075    -8.516782    37.438717    -14.194795    41.481274    16.084358    -46.048405    102.876183    47.747463    -41.063084    55.883369    36.706318    -23.704977    26.049673    -28.952803    41.626858    4.067436    -1.290764    -12.912132    43.642532    0.000000    0.000000    0.000000    -28.785049    -7.789307    -19.592245    4.254833    33.836197    -7.049371    19.779594    -13.621526    7.168456    0.000000    0.000000    0.000000    
21.763144    146.068741    47.391293    2.705760    2.839471    -56.401203    1.087302    -1.929599    0.720118    1.224535    -2.016781    0.252613    22.002672    3.256063    18.606691    -14.399256    9.284582    15.883408    13.362745    2.566852    -15.341817    -6.584458    -5.270449    -21.972357    -3.828689    -2.533716    -85.969398    -3.557158    -5.272005    -26.192204    -0.615335    2.763431    -8.258426    37.148197    -14.594225    41.841728    16.048729    -46.244991    102.544373    48.007366    -40.893330    56.152836    36.701008    -23.708364    26.036669    -28.942669    41.599907    4.069362    -1.293097    -12.885649    43.640484    0.000000    0.000000    0.000000    -28.777140    -7.795700    -19.585348    4.245285    33.828392    -7.055426    19.784437    -13.598367    7.175932    0.000000    0.000000    0.000000    
21.789991    146.074570    47.369656    2.704153    2.843488    -56.398872    1.114626    -1.906697    0.760508    1.189425    -2.050716    0.265755    21.995327    3.240581    18.612278    -14.389948    9.271181    15.885891    13.357181    2.550955    -15.342175    -6.566348    -5.301647    -22.414528    -3.754232    -2.704356    -85.896164    -3.679055    -5.353543    -25.785574    -0.824315    2.535670    -8.019137    36.929523    -15.086816    42.203041    16.050835    -46.268131    102.208923    48.248825    -40.609394    56.354240    36.723751    -23.735420    26.037130    -28.942924    41.575150    4.070388    -1.335004    -12.795498    43.661785    0.000000    0.000000    0.000000    -28.768976    -7.803932    -19.570028    4.253890    33.811142    -7.076826    19.845024    -13.563572    7.171364    0.000000    0.000000    0.000000    
21.817259    146.083023    47.345482    2.700475    2.845448    -56.396385    1.134075    -1.875048    0.814112    1.167843    -2.088738    0.283472    21.988411    3.201059    18.607458    -14.381457    9.290179    15.876657    13.354876    2.520141    -15.368235    -6.562850    -5.337419    -22.022594    -3.862128    -2.444796    -85.990173    -3.475707    -5.238239    -26.069620    -1.021189    2.339657    -7.829593    36.681614    -15.547682    42.598534    16.134378    -46.327286    101.979736    48.437088    -40.518665    56.517662    36.721493    -23.743464    26.042027    -28.922089    41.559216    4.081681    -1.348212    -12.768074    43.635319    0.000000    0.000000    0.000000    -28.759310    -7.815102    -19.580727    4.239934    33.809471    -7.073835    19.840380    -13.551029    7.171532    0.000000    0.000000    0.000000    
21.839497    146.091644    47.319218    2.694182    2.846066    -56.392124    1.152154    -1.836178    0.859623    1.145816    -2.130677    0.298868    21.970289    3.163927    18.613091    -14.355183    9.296366    15.879667    13.354024    2.510207    -15.358916    -6.549961    -5.410199    -22.476847    -3.820331    -2.559816    -85.901955    -3.570946    -5.297913    -25.719507    -1.212559    2.195024    -7.655533    36.435436    -15.986385    43.046719    16.072445    -46.455307    101.665649    48.657513    -40.296967    56.727394    36.717781    -23.742496    26.050789    -28.888073    41.532780    4.060324    -1.361270    -12.743534    43.634495    0.000000    0.000000    0.000000    -28.749683    -7.818305    -19.563396    4.242064    33.802357    -7.076550    19.798641    -13.562519    7.178463    0.000000    0.000000    0.000000    
21.872431    146.101639    47.292828    2.702553    2.852126    -56.385891    1.177374    -1.808279    0.907102    1.123431    -2.172985    0.314799    21.943748    3.120452    18.610764    -14.342354    9.308710    15.874149    13.331060    2.498624    -15.355015    -6.532921    -5.457235    -22.104488    -3.887150    -2.328928    -85.978035    -3.468374    -5.148333    -26.024193    -1.428103    2.016805    -7.477908    36.266521    -16.514292    43.471004    16.210461    -46.398842    101.463043    48.963955    -40.043430    56.952793    36.711117    -23.763124    26.049501    -28.867104    41.509941    4.064673    -1.388439    -12.727444    43.615356    0.000000    0.000000    0.000000    -28.745234    -7.841842    -19.576347    4.234813    33.802269    -7.069639    19.859001    -13.523371    7.153889    0.000000    0.000000    0.000000    
21.897892    146.108276    47.265297    2.702138    2.856908    -56.377052    1.205948    -1.780767    0.958496    1.101044    -2.199877    0.331602    21.914045    3.082634    18.603373    -14.335118    9.299261    15.861746    13.310556    2.474502    -15.357291    -6.519626    -5.453594    -22.543293    -3.773942    -2.566778    -85.891487    -3.641379    -5.246205    -25.690041    -1.652673    1.817766    -7.288806    36.051029    -16.962929    43.835541    16.219866    -46.437450    101.226936    49.143764    -39.828857    57.168358    36.711796    -23.774532    26.058250    -28.843946    41.491863    4.041933    -1.401815    -12.709943    43.622269    0.000000    0.000000    0.000000    -28.737974    -7.853533    -19.595940    4.218516    33.802334    -7.049648    19.848019    -13.509820    7.154306    0.000000    0.000000    0.000000    
